<?xml version="1.0" encoding="utf-8"?>
<!-- Generator: Adobe Illustrator 24.3.0, SVG Export Plug-In . SVG Version: 6.00 Build 0)  -->
<svg version="1.1" id="Livello_1" xmlns="http://www.w3.org/2000/svg" xmlns:xlink="http://www.w3.org/1999/xlink" x="0px" y="0px"
	 viewBox="0 0 600 600" style="enable-background:new 0 0 600 600;" xml:space="preserve">
<style type="text/css">
	.st0{clip-path:url(#SVGID_2_);fill:#404041;}
	.st1{clip-path:url(#SVGID_2_);}
	.st2{clip-path:url(#SVGID_4_);}
	.st3{clip-path:url(#SVGID_6_);fill:#404041;}
	.st4{clip-path:url(#SVGID_8_);}
	.st5{clip-path:url(#SVGID_10_);fill:#FFFFFF;}
	.st6{clip-path:url(#SVGID_10_);fill:#0AB04E;}
</style>
<g>
	<defs>
		<circle id="SVGID_1_" cx="300" cy="300" r="300"/>
	</defs>
	<clipPath id="SVGID_2_">
		<use xlink:href="#SVGID_1_"  style="overflow:visible;"/>
	</clipPath>
	<circle class="st0" cx="300" cy="300" r="300"/>
	<g class="st1">
		<g>
			<defs>
				<rect id="SVGID_3_" x="3.39" y="-107.55" width="584.14" height="778.86"/>
			</defs>
			<clipPath id="SVGID_4_">
				<use xlink:href="#SVGID_3_"  style="overflow:visible;"/>
			</clipPath>
			<g class="st2">
				<defs>
					<rect id="SVGID_5_" x="3.39" y="-107.55" width="584.14" height="778.86"/>
				</defs>
				<clipPath id="SVGID_6_">
					<use xlink:href="#SVGID_5_"  style="overflow:visible;"/>
				</clipPath>
				<rect x="3.39" y="-107.55" class="st3" width="584.14" height="778.86"/>
			</g>
			<g class="st2">
				<defs>
					<rect id="SVGID_7_" x="3.39" y="-107.55" width="584.14" height="778.86"/>
				</defs>
				<clipPath id="SVGID_8_">
					<use xlink:href="#SVGID_7_"  style="overflow:visible;"/>
				</clipPath>
				<g class="st4">
					<defs>
						<rect id="SVGID_9_" x="3.39" y="-107.55" width="584.14" height="778.86"/>
					</defs>
					<clipPath id="SVGID_10_">
						<use xlink:href="#SVGID_9_"  style="overflow:visible;"/>
					</clipPath>
					<path class="st5" d="M372.66,267.52c4.6,11.13,7.17,23.4,7.17,36.3v0.72c0,48.43-34.54,87.6-84.03,87.6
						c-49.51,0-84.76-39.88-84.76-88.32v-0.71c0-48.43,34.55-87.96,84.05-87.96c9.42,0,18.32,1.47,26.56,4.17
						c9.3-11.44,19.17-22.42,29.51-32.94c-16.47-7.29-35.07-11.47-55.35-11.47c-76.58,0-130.7,58.76-130.7,128.91v0.72
						c0,70.15,53.41,128.2,129.98,128.2s130.7-58.76,130.7-128.92v-0.71c0-26.4-7.58-51.08-21.09-71.61
						C393.25,242.83,382.63,254.91,372.66,267.52"/>
					<path class="st6" d="M464.93,140.61c-6.44-9.82-19.62-12.54-29.43-6.09c-57.19,37.58-105.05,87.51-140.07,145.81
						c-9.38-15.62-19.79-30.59-31-44.98c-13.25,6.28-23.86,16.58-30.92,29.39c16.4,21.5,30.66,44.53,42.53,68.86
						c1.7,3.79,4.52,7.13,8.29,9.45c3.44,2.11,7.29,3.15,11.13,3.15c5.14,0,10.25-1.87,14.26-5.49c2.46-2.23,4.3-4.93,5.47-7.87
						c32.38-66.05,82.03-122.32,143.65-162.81C468.65,163.59,471.38,150.42,464.93,140.61"/>
				</g>
			</g>
		</g>
	</g>
</g>
</svg>
